<svg xmlns="http://www.w3.org/2000/svg" xmlns:xlink="http://www.w3.org/1999/xlink" width="97.5" height="15"><path fill="red" stroke="black" d="M0.69 9.42L1.95 9.42L1.95 9.42Q2.04 11.64 3.87 11.64L3.87 11.64L3.87 11.64Q4.53 11.64 4.97 11.
31L4.97 11.31L4.97 11.31Q5.58 10.83 5.58 9.98L5.58 9.98L5.58 9.98Q5.58 9.05 4.81 8.35L4.81 8.35L4.81 8.35Q4.28 7.88 3.00 7.14L3.00 7.14L3.00 7.14Q0.97 5.95 0.97 4.29L0.97 4.29L0.97 4.29Q0.97 3.24 1.63 2.52L1.63 2.52L1.63 2.52Q2.43 1.63 3
.76 1.63L3.76 1.63L3.76 1.63Q6.25 1.63 6.58 4.62L6.58 4.62L5.35 4.62L5.35 4.62Q5.30 3.93 5.07 3.52L5.07 3.52L5.07 3.52Q4.60 2.70 3.76 2.70L3.76 2.70L3.76 2.70Q2.90 2.70 2.48 3.28L2.48 3.28L2.48 3.28Q2.18 3.70 2.18 4.20L2.18 4.20L2.18 4.2
0Q2.18 5.38 4.11 6.51L4.11 6.51L4.11 6.51Q5.30 7.21 5.94 7.84L5.94 7.84L5.94 7.84Q6.80 8.68 6.80 9.96L6.80 9.96L6.80 9.96Q6.80 11.17 6.03 11.91L6.03 11.91L6.03 11.91Q5.21 12.74 3.90 12.74L3.90 12.74L3.90 12.74Q2.27 12.74 1.36 11.54L1.36
11.54L1.36 11.54Q0.73 10.70 0.69 9.42L0.69 9.42ZM8.60 12.44L8.60 1.93L9.71 1.93L9.71 6.12L9.71 6.12Q10.80 5.02 11.88 5.02L11.88 5.02L11.88 5.02Q13.10 5.02 13.67 6.10L13.67 6.10L13.67 6.10Q13.98 6.71 13.98 7.57L13.98 7.57L13.98 12.44L12.8
7 12.44L12.87 7.90L12.87 7.90Q12.87 6.09 11.70 6.09L11.70 6.09L11.70 6.09Q10.92 6.09 10.33 6.66L10.33 6.66L10.33 6.66Q9.71 7.27 9.71 8.06L9.71 8.06L9.71 12.44L8.60 12.44ZM17.24 7.39L16.04 7.39L16.04 7.39Q16.33 5.02 18.76 5.02L18.76 5.02L
18.76 5.02Q21.20 5.02 21.20 7.63L21.20 7.63L21.20 11.21L21.20 11.21Q21.20 11.64 21.58 11.64L21.58 11.64L21.58 11.64Q21.72 11.64 21.94 11.59L21.94 11.59L21.94 12.64L21.94 12.64Q21.64 12.71 21.23 12.71L21.23 12.71L21.23 12.71Q20.24 12.71 2
0.10 11.61L20.10 11.61L20.10 11.61Q19.09 12.71 17.87 12.71L17.87 12.71L17.87 12.71Q17.07 12.71 16.56 12.30L16.56 12.30L16.56 12.30Q15.89 11.76 15.89 10.69L15.89 10.69L15.89 10.69Q15.89 8.23 20.12 7.93L20.12 7.93L20.12 7.63L20.12 7.63Q20.
12 6.02 18.76 6.02L18.76 6.02L18.76 6.02Q17.35 6.02 17.24 7.39L17.24 7.39ZM20.12 9.87L20.12 8.88L20.12 8.88Q16.98 9.03 16.98 10.63L16.98 10.63L16.98 10.63Q16.98 11.71 18.05 11.71L18.05 11.71L18.05 11.71Q18.77 11.71 19.46 11.15L19.46 11.1
5L19.46 11.15Q20.12 10.63 20.12 9.87L20.12 9.87ZM23.60 5.31L24.48 5.31L24.65 6.23L24.65 6.23Q25.78 5.02 26.88 5.02L26.88 5.02L26.88 5.02Q28.10 5.02 28.67 6.10L28.67 6.10L28.67 6.10Q28.98 6.71 28.98 7.57L28.98 7.57L28.98 12.44L27.87 12.44
L27.87 7.90L27.87 7.90Q27.87 6.09 26.70 6.09L26.70 6.09L26.70 6.09Q25.91 6.09 25.33 6.66L25.33 6.66L25.33 6.66Q24.71 7.27 24.71 8.07L24.71 8.07L24.71 12.44L23.60 12.44L23.60 5.31ZM35.43 10.22L36.60 10.22L36.60 10.22Q35.95 12.73 33.76 12.
73L33.76 12.73L33.76 12.73Q32.41 12.73 31.62 11.60L31.62 11.60L31.62 11.60Q30.90 10.57 30.90 8.88L30.90 8.88L30.90 8.88Q30.90 7.26 31.57 6.23L31.57 6.23L31.57 6.23Q32.37 5.02 33.75 5.02L33.75 5.02L33.75 5.02Q36.45 5.02 36.63 9.10L36.63 9
.10L32.03 9.10L32.03 9.10Q32.12 11.73 33.78 11.73L33.78 11.73L33.78 11.73Q35.10 11.73 35.43 10.22L35.43 10.22ZM32.07 8.14L35.43 8.14L35.43 8.14Q35.19 6.03 33.75 6.03L33.75 6.03L33.75 6.03Q32.37 6.03 32.07 8.14L32.07 8.14ZM38.42 12.44L38.
42 1.93L39.62 1.93L39.62 6.40L42.88 6.40L42.88 1.93L44.08 1.93L44.08 12.44L42.88 12.44L42.88 7.54L39.62 7.54L39.62 12.44L38.42 12.44ZM50.43 10.22L51.60 10.22L51.60 10.22Q50.95 12.73 48.76 12.73L48.76 12.73L48.76 12.73Q47.41 12.73 46.62 1
1.60L46.62 11.60L46.62 11.60Q45.90 10.57 45.90 8.88L45.90 8.88L45.90 8.88Q45.90 7.26 46.57 6.23L46.57 6.23L46.57 6.23Q47.37 5.02 48.75 5.02L48.75 5.02L48.75 5.02Q51.45 5.02 51.63 9.10L51.63 9.10L47.03 9.10L47.03 9.10Q47.12 11.73 48.78 11
.73L48.78 11.73L48.78 11.73Q50.10 11.73 50.43 10.22L50.43 10.22ZM47.07 8.14L50.43 8.14L50.43 8.14Q50.19 6.03 48.75 6.03L48.75 6.03L48.75 6.03Q47.37 6.03 47.07 8.14L47.07 8.14ZM54.74 7.39L53.54 7.39L53.54 7.39Q53.83 5.02 56.26 5.02L56.26
5.02L56.26 5.02Q58.70 5.02 58.70 7.63L58.70 7.63L58.70 11.21L58.70 11.21Q58.70 11.64 59.08 11.64L59.08 11.64L59.08 11.64Q59.22 11.64 59.44 11.59L59.44 11.59L59.44 12.64L59.44 12.64Q59.14 12.71 58.73 12.71L58.73 12.71L58.73 12.71Q57.74 12
.71 57.60 11.61L57.60 11.61L57.60 11.61Q56.59 12.71 55.37 12.71L55.37 12.71L55.37 12.71Q54.57 12.71 54.06 12.30L54.06 12.30L54.06 12.30Q53.39 11.76 53.39 10.69L53.39 10.69L53.39 10.69Q53.39 8.23 57.62 7.93L57.62 7.93L57.62 7.63L57.62 7.6
3Q57.62 6.02 56.26 6.02L56.26 6.02L56.26 6.02Q54.85 6.02 54.74 7.39L54.74 7.39ZM57.62 9.87L57.62 8.88L57.62 8.88Q54.48 9.03 54.48 10.63L54.48 10.63L54.48 10.63Q54.48 11.71 55.55 11.71L55.55 11.71L55.55 11.71Q56.27 11.71 56.96 11.15L56.96
 11.15L56.96 11.15Q57.62 10.63 57.62 9.87L57.62 9.87ZM64.34 1.93L64.34 10.80L64.34 10.80Q64.34 11.44 64.95 11.44L64.95 11.44L64.95 11.44Q65.46 11.44 66.06 11.32L66.06 11.32L66.06 12.44L66.06 12.44Q65.17 12.57 64.75 12.57L64.75 12.57L64.7
5 12.57Q63.16 12.57 63.16 11.01L63.16 11.01L63.16 1.93L64.34 1.93ZM70.91 11.81L68.39 5.31L69.68 5.31L71.46 10.38L73.04 5.31L74.34 5.31L71.40 13.54L71.40 13.54Q71.15 14.26 70.56 14.49L70.56 14.49L70.56 14.49Q70.28 14.60 68.79 14.60L68.79
14.60L68.79 13.51L69.43 13.51L69.43 13.51Q69.66 13.51 69.76 13.51L69.76 13.51L69.76 13.51Q70.27 13.51 70.42 13.11L70.42 13.11L70.91 11.81ZM76.38 13.26L76.38 11.25L78.38 11.25L78.38 13.26L76.38 13.26ZM85.59 3.28L85.59 1.93L86.91 1.93L86.9
1 3.28L85.59 3.28ZM85.66 12.44L85.66 5.31L86.84 5.31L86.84 12.44L85.66 12.44ZM93.76 5.02L93.76 5.02L93.76 5.02Q95.14 5.02 95.93 6.24L95.93 6.24L95.93 6.24Q96.60 7.25 96.60 8.88L96.60 8.88L96.60 8.88Q96.60 10.10 96.20 11.02L96.20 11.02L96
.20 11.02Q95.45 12.74 93.74 12.74L93.74 12.74L93.74 12.74Q92.41 12.74 91.62 11.61L91.62 11.61L91.62 11.61Q90.90 10.58 90.90 8.88L90.90 8.88L90.90 8.88Q90.90 7.05 91.73 6.00L91.73 6.00L91.73 6.00Q92.52 5.02 93.76 5.02ZM93.74 6.07L93.74 6.
07L93.74 6.07Q92.93 6.07 92.48 6.91L92.48 6.91L92.48 6.91Q92.07 7.65 92.07 8.88L92.07 8.88L92.07 8.88Q92.07 10.00 92.40 10.72L92.40 10.72L92.40 10.72Q92.86 11.69 93.75 11.69L93.75 11.69L93.75 11.69Q94.57 11.69 95.02 10.85L95.02 10.85L95.
02 10.85Q95.43 10.11 95.43 8.89L95.43 8.89L95.43 8.89Q95.43 7.62 95.01 6.90L95.01 6.90L95.01 6.90Q94.56 6.07 93.74 6.07Z"/></svg>